<?xml version="1.0" encoding="UTF-8"?>
<svg width="36px" height="36px" viewBox="0 0 36 36" version="1.1" xmlns="http://www.w3.org/2000/svg" xmlns:xlink="http://www.w3.org/1999/xlink">
    <!-- Generator: Sketch 63.1 (92452) - https://sketch.com -->
    <title>Settings</title>
    <desc>Created with Sketch.</desc>
    <g id="Website" stroke="none" stroke-width="1" fill="none" fill-rule="evenodd">
        <g id="Homepage-Desktop-XL" transform="translate(-124.000000, -4794.000000)" fill-rule="nonzero" stroke="#70aee1" stroke-width="2">
            <g id="How-it-Works" transform="translate(0.000000, 4532.000000)">
                <g id="Content" transform="translate(80.000000, 218.000000)">
                    <g id="1">
                        <g id="Header">
                            <g transform="translate(30.000000, 30.000000)" id="Icon">
                                <g>
                                    <path d="M33.5152385,15 C33.7997944,15 34.0641987,15.0960472 34.2740875,15.2608351 C34.4774222,15.4204773 34.629455,15.6442467 34.6995174,15.9058027 L34.6995174,15.9058027 L35.2540051,19.1514504 C36.304831,19.4087913 37.31325,19.8065768 38.2656807,20.31496 L38.2656807,20.31496 L41.2979866,18.7610545 C41.513497,18.5880493 41.7750454,18.4969911 42.0508052,18.4969911 C42.3285455,18.4969911 42.5912196,18.5900321 42.8057796,18.7604375 L42.8057796,18.7604375 L45.1599558,21.1028928 C45.3592246,21.3002294 45.4768655,21.5511395 45.5094892,21.812225 C45.5413005,22.0668084 45.4927214,22.3308267 45.361466,22.5644542 L45.361466,22.5644542 L43.4339336,25.2767553 C43.8710134,26.0166346 44.2318593,26.7964926 44.5167597,27.6082706 L44.5167597,27.6082706 L44.869433,28.6776142 L47.9917885,29.2073037 C48.2715583,29.2542587 48.5158103,29.3921351 48.6938973,29.5890964 C48.8651244,29.7784707 48.9748541,30.022152 48.9961644,30.2892571 L48.9961644,30.2892571 L48.9997867,33.5831502 C48.9997867,33.8677152 48.9037396,34.1321285 48.7389501,34.3420242 C48.5794681,34.5451597 48.3559865,34.6970951 48.0947666,34.7672495 L48.0947666,34.7672495 L44.8201633,35.3204313 C44.6175109,36.1486111 44.3164462,36.9553634 43.942623,37.7333489 L43.942623,37.7333489 L43.436131,38.7412633 L45.2745501,41.3225082 C45.4379085,41.5519905 45.5117735,41.8207632 45.5002731,42.0850516 C45.4891099,42.3415896 45.3979031,42.5939866 45.2301374,42.8020951 L45.2301374,42.8020951 L42.9004012,45.1418378 C42.6687282,45.3735135 42.3629769,45.5032162 42.0357646,45.5032162 C41.8285134,45.5032162 41.6263076,45.452765 41.4472369,45.3542896 L41.4472369,45.3542896 L38.723004,43.4193373 C37.9831777,43.856383 37.2033788,44.217204 36.3916646,44.5020887 L36.3916646,44.5020887 L35.3223304,44.8547672 L34.7926485,47.9771504 C34.7455841,48.2575795 34.6071215,48.5021692 34.4099628,48.681689 C34.2187955,48.8557534 33.9728732,48.9685896 33.7033191,48.9944738 L33.7033191,48.9944738 L30.409345,49.0002073 C30.1247891,49.0002073 29.8603848,48.9041601 29.650496,48.7393722 C29.4473602,48.5798862 29.2954261,48.3563984 29.225272,48.0951721 L29.225272,48.0951721 L28.6737161,44.8301174 C27.8628577,44.6131383 27.0709763,44.329328 26.3146301,43.9696308 L26.3146301,43.9696308 L25.3256841,43.4748934 L22.7183305,45.3307054 C22.513165,45.4784263 22.2709571,45.5558591 22.0166644,45.5558591 C21.7389241,45.5558591 21.47625,45.4628181 21.2616901,45.2924127 L21.2616901,45.2924127 L18.9075139,42.9499573 C18.708245,42.7526208 18.5906041,42.5017107 18.5579804,42.2406252 C18.5262124,41.9863876 18.5746164,41.7227408 18.7054692,41.4893482 L18.7054692,41.4893482 L20.6299385,38.7959478 C20.185555,38.0562198 19.8154038,37.2746229 19.5276338,36.4670122 L19.5276338,36.4670122 L19.1732043,35.4054906 L16.0230389,34.8681077 C15.7426171,34.8210433 15.4980344,34.6825799 15.3185194,34.4854219 C15.1444531,34.294248 15.031617,34.0483167 15.0057333,33.7787534 L15.0057333,33.7787534 L15,30.4922613 C15,30.2076962 15.0960471,29.9432829 15.2608366,29.7333872 C15.4204749,29.5300528 15.644238,29.3780188 15.9057877,29.3079561 L15.9057877,29.3079561 L19.1483347,28.7539852 C19.360667,27.9160035 19.6468427,27.1083106 20.0153268,26.3311109 L20.0153268,26.3311109 L20.5173809,25.3253432 L18.665074,22.7228216 C18.5017156,22.4933393 18.4278506,22.2245666 18.4393511,21.9602782 C18.4505049,21.7039559 18.5415677,21.4517677 18.7090637,21.2437598 L18.7090637,21.2437598 L21.0530846,18.8970932 C21.2789518,18.6671166 21.5875757,18.5421136 21.9113799,18.5421136 C22.1181754,18.5421136 22.3199477,18.5923432 22.4987262,18.6903914 L22.4987262,18.6903914 L25.2114392,20.6301356 C25.9512236,20.1856877 26.7328864,19.815487 27.5405679,19.5276849 L27.5405679,19.5276849 L28.6020801,19.1732504 L29.1394553,16.0230569 C29.1865198,15.7426279 29.3249823,15.4980382 29.522141,15.3185183 C29.7133086,15.1444536 29.9592315,15.0316173 30.2287862,15.0057333 L30.2287862,15.0057333 Z M32.0001037,26.0909845 C30.3698683,26.0909845 28.8924447,26.7529038 27.8226743,27.8226743 C26.7529038,28.8924447 26.0909845,30.3698683 26.0909845,32.0001037 C26.0909845,33.630339 26.7529038,35.1077626 27.8226743,36.1775331 C28.8924447,37.2473035 30.3698683,37.9092228 32.0001037,37.9092228 C33.630339,37.9092228 35.1077626,37.2473035 36.1775331,36.1775331 C37.2473035,35.1077626 37.9092228,33.630339 37.9092228,32.0001037 C37.9092228,30.3698683 37.2473035,28.8924447 36.1775331,27.8226743 C35.1077626,26.7529038 33.630339,26.0909845 32.0001037,26.0909845 Z" id="Settings"></path>
                                </g>
                            </g>
                        </g>
                    </g>
                </g>
            </g>
        </g>
    </g>
</svg>
